<svg xmlns="http://www.w3.org/2000/svg" viewBox="0 0 334.67 181.06"><defs><style>.cls-1,.cls-2,.cls-4{fill:none;}.cls-1,.cls-2,.cls-5{stroke:#fff;stroke-miterlimit:10;}.cls-1{stroke-width:3px;}.cls-2{stroke-width:2px;}.cls-3{fill:#2f4993;}.cls-11,.cls-5{fill:#c6b8a7;}.cls-5{stroke-width:1.5px;}.cls-6{fill:#fff;}.cls-7{fill:#009ace;}.cls-8{fill:#009cd4;}.cls-9{fill:#009fc5;}.cls-10{fill:#08a53e;}</style></defs><g id="Layer_2" data-name="Layer 2"><g id="Layer_3" data-name="Layer 3"><line class="cls-1" x1="25.15" y1="97.18" x2="295.86" y2="97.18"/><line class="cls-2" x1="71.53" y1="117.6" x2="71.53" y2="7.9"/><line class="cls-2" x1="267.07" y1="117.6" x2="267.07" y2="15.05"/><path class="cls-3" d="M131.64,71.05a10.15,10.15,0,0,1-.88,4,42.4,42.4,0,0,1-2.88,5.61c-1,1.71-2,3.41-3,5.12-.12.19-.19.24-.32,0-1.72-3-3.59-5.88-5.12-9a16.56,16.56,0,0,1-1.51-4.08,7,7,0,0,1,2-6.78A6.66,6.66,0,0,1,125,64a7,7,0,0,1,6.64,6.21A7.09,7.09,0,0,1,131.64,71.05Zm-6.95,2.21a2.41,2.41,0,0,0,2.46-2.39,2.45,2.45,0,1,0-4.9-.05A2.41,2.41,0,0,0,124.69,73.26Z"/><path class="cls-3" d="M124.63,89.28a13.76,13.76,0,0,1-5.29-1,4.13,4.13,0,0,1-1.82-1.38,2.29,2.29,0,0,1,.55-3.24,7.66,7.66,0,0,1,2.22-1.14.26.26,0,0,1,.36.15c.25.43.49.85.75,1.26.14.21,0,.28-.15.33a6.44,6.44,0,0,0-1.52.55,2.26,2.26,0,0,0-.45.31.55.55,0,0,0,0,.87,2.73,2.73,0,0,0,1.07.64,12.42,12.42,0,0,0,3.42.67,14.08,14.08,0,0,0,4.62-.44,5,5,0,0,0,1.53-.66c.59-.42.58-.88,0-1.27a5.67,5.67,0,0,0-1.7-.66c-.25-.06-.3-.15-.15-.39.26-.4.49-.81.74-1.22.06-.1.1-.21.26-.16a5.52,5.52,0,0,1,2.8,1.69,2.25,2.25,0,0,1-.36,3.19,7.21,7.21,0,0,1-3.29,1.52A16.34,16.34,0,0,1,124.63,89.28Z"/><polyline id="_Slice_" data-name="&lt;Slice&gt;" class="cls-4" points="205.58 96.97 205.58 95.97 263.58 95.97 263.58 96.97"/><rect class="cls-5" x="133.83" y="89.82" width="47.96" height="14.3" rx="7.15"/><path class="cls-6" d="M153.33,97.09h-4.18V93h4.18v.72h1.88V92.36h1v5.31h-1V96.38h-1.88Zm-1-3.24h-2.17v2.43h2.17Zm3.95,5.8c0,1.09-1.16,1.73-3.05,1.73s-3-.64-3-1.73,1.16-1.73,3-1.73S156.28,98.56,156.28,99.65Zm-1,0c0-.59-.74-.92-2-.92s-2,.33-2,.92.73.93,2,.93S155.25,100.25,155.25,99.65Zm-1.92-5.06v1h1.88v-1Z"/><path class="cls-6" d="M166.13,96.72v.83H158v-.83h3.56v-.9H159V92.76h6.15v.82H160V95h5.19v.83h-2.63v.9Zm-1,3c0,1.05-1.17,1.65-3.11,1.65s-3.11-.6-3.11-1.65,1.18-1.64,3.11-1.64S165.13,98.7,165.13,99.74Zm-1,0c0-.55-.75-.85-2.07-.85s-2.06.3-2.06.85.74.85,2.06.85S164.09,100.3,164.09,99.74Z"/><path class="cls-6" d="M174.64,92.35V97.7h-1V96.47h-2.14a2.39,2.39,0,0,1-1.84.78,2.2,2.2,0,1,1,0-4.4,2.42,2.42,0,0,1,1.84.78h2.14V92.36ZM171,95.05a1.37,1.37,0,1,0-1.37,1.32A1.3,1.3,0,0,0,171,95.05Zm-2.45,3.09h6.09v3.25h-1V99h-5.06Zm5.06-2.51V94.47h-1.7a2.63,2.63,0,0,1,.07.58,2.2,2.2,0,0,1-.08.58Z"/><path class="cls-3" d="M144.54,61.92h-5.13v-4.5h5.13Zm-1.2-3.51h-2.72v2.53h2.72Zm4.76,8.2v1h-7.41V64.74h5.87v-.89h-5.89v-1h7.11v2.76h-5.86v1Zm-.32-4.23h-1.25V56.85h1.25Z"/><path class="cls-3" d="M151.76,64.1a30.39,30.39,0,0,0,4.93-.37l.13,1a30.22,30.22,0,0,1-5.39.38h-.92V60.83h3.78v-2h-3.8v-1h5v4h-3.78Zm7.07-7.28V67.7h-1.24V56.82Z"/><path class="cls-3" d="M170.75,65.34v1h-9.81v-1h4.27V63.26c-2-.18-3.36-1.27-3.36-2.87,0-1.77,1.68-2.91,4-2.91s4,1.14,4,2.91c0,1.6-1.39,2.71-3.37,2.89v2.06Zm-4.92-3c1.61,0,2.77-.74,2.77-1.91s-1.16-1.92-2.77-1.92-2.78.74-2.78,1.92S164.21,62.3,165.83,62.3Z"/><path class="cls-3" d="M173.5,64.06a22.78,22.78,0,0,0,3.48-.29l.11,1a22.63,22.63,0,0,1-4,.29h-.75V60.92H175V59h-2.66V58h3.85v3.93H173.5Zm4.34-7H179v10h-1.15V61.66h-1.22v-1h1.22Zm3.37-.24V67.68H180V56.85Z"/><path class="cls-3" d="M196.19,65.48v1h-9.82v-1h4.28V64.09c-1.86-.13-3-.87-3-2.07s1.39-2.08,3.6-2.08,3.61.77,3.61,2.08-1.12,1.93-3,2.07v1.39Zm-.51-6.16h-8.86v-1h3.83V57h1.23v1.33h3.8Zm-4.43,3.82c1.48,0,2.35-.4,2.35-1.12s-.87-1.12-2.35-1.12-2.34.41-2.34,1.12S189.77,63.14,191.25,63.14Z"/><path class="cls-3" d="M202.53,62a21.2,21.2,0,0,1-3.95.27h-.71V57.47H202v1h-2.9v1h2.5v.92h-2.5v1a17.9,17.9,0,0,0,3.36-.26ZM207,66.62v1h-7.61V64.85h6v-.79h-6v-1h7.23v2.65h-6v.87Zm-3.66-6.43H202v-1h1.28V57h1.15v5.52h-1.15Zm3.26,2.46h-1.17V56.86h1.17Z"/><path class="cls-3" d="M215.74,59.51a5.21,5.21,0,0,0,2.69,4.75l-.74,1A5.32,5.32,0,0,1,215.13,62a5.59,5.59,0,0,1-2.6,3.43l-.78-1a5.55,5.55,0,0,0,2.74-4.94V57.72h1.25Zm5.07-2.69V67.69h-1.24v-6.3h-2.32v-1h2.32V56.82Z"/><path class="cls-3" d="M228.36,62.27v.87h3.06v2.59h-6.16v.9h6.47v1H224V64.86h6.18v-.78H224v-.94h3.11v-.87h-4.27v-1h9.79v1Zm-4.47-3.44c0-1.21,1.43-1.87,3.86-1.87s3.86.66,3.86,1.87-1.44,1.87-3.86,1.87S223.89,60,223.89,58.83Zm1.28,0c0,.62.9.94,2.58.94s2.58-.32,2.58-.94-.9-.95-2.58-.95S225.17,58.2,225.17,58.83Z"/><path class="cls-3" d="M242.74,62.53h-5V57.65h5v.86H245V56.85h1.24v6.38H245V61.67h-2.25Zm-1.2-3.9h-2.6v2.92h2.6Zm4.74,7c0,1.31-1.4,2.08-3.66,2.08S239,66.91,239,65.6s1.39-2.07,3.65-2.07S246.28,64.29,246.28,65.6Zm-1.24,0c0-.71-.89-1.1-2.42-1.1s-2.41.39-2.41,1.1.87,1.12,2.41,1.12S245,66.32,245,65.6Zm-2.3-6.08v1.14H245V59.52Z"/><path class="cls-3" d="M258.1,62.08v1h-9.79v-1h4.27V61h-3.06V57.33h7.38v1h-6.16V60H257v1h-3.16v1.08Zm-1.2,3.63c0,1.26-1.41,2-3.73,2s-3.73-.72-3.73-2,1.41-2,3.73-2S256.9,64.46,256.9,65.71Zm-1.25,0c0-.66-.9-1-2.48-1s-2.47.36-2.47,1,.88,1,2.47,1S255.65,66.38,255.65,65.71Z"/><path class="cls-3" d="M148.64,76.92v1h-9.79v-1h4.27v-1c-2-.14-3.23-.93-3.23-2.17s1.52-2.19,3.86-2.19,3.86.82,3.86,2.19-1.26,2-3.25,2.17v1Zm-7.31,4h6.22v1h-7.47V78.73h1.25Zm2.42-5.93c1.6,0,2.58-.43,2.58-1.2s-1-1.2-2.58-1.2-2.59.43-2.59,1.2S142.14,74.94,143.75,74.94Z"/><path class="cls-3" d="M159.71,79.7v1H149.9v-1ZM150.32,77c2.11-.35,3.82-1.84,3.82-3.47v-.25H150.7v-1h8.18v1h-3.44v.25c0,1.63,1.73,3.1,3.87,3.42l-.5,1a5.57,5.57,0,0,1-4-2.71,5.5,5.5,0,0,1-4,2.76Z"/><path class="cls-3" d="M170.76,79.67v1h-9.82v-1Zm-1.11-2.32h-7.51V72.2h7.42v1h-6.19v3.16h6.28Z"/><path class="cls-3" d="M181.79,76.86v1H172v-1h4.29V76h-3V73.29h6.1v-.87H173.2v-.94h7.35v2.69h-6.11V75h6.33v1H177.5v.86Zm-8.54,1.74h7.33V82h-7.33ZM174.46,81h4.91V79.58h-4.91Z"/><path class="cls-6" d="M70.27,122.29v6.92h-4v-6.92Zm-3,1.21V128h2.05v-4.5Zm6.28,7.24v-1.53H70.83V128h6.11v1.24h-2.4v1.53ZM72,127.13a25.17,25.17,0,0,1-.47-5v-.88h4.88v1.24H72.55A24.56,24.56,0,0,0,73,127Z"/><path class="cls-6" d="M67.32,134.65v6h-1v-7.27h3.41v1.24Zm6.38,7.13h-1v-1.53H69V139h8v1.24H73.7Zm-3-4.23A4.36,4.36,0,0,1,73,135a4.35,4.35,0,0,1-2.57-2.63l1-.68A3.77,3.77,0,0,0,75,134.35h1.26v1.24H75a3.61,3.61,0,0,0-3.37,2.58Z"/><path class="cls-6" d="M68.09,142.56l.89.67a2.83,2.83,0,0,0-1,2.09c0,1,.54,1.67,1.4,1.67s1.56-.62,1.56-2.61h1c0,1.74.63,2.31,1.46,2.31a1.2,1.2,0,0,0,1.24-1.35,2.48,2.48,0,0,0-.84-1.76l.86-.72a3.65,3.65,0,0,1,1.08,2.53c0,1.58-.81,2.7-2.23,2.7a2.07,2.07,0,0,1-2-1.53H71.5a2.21,2.21,0,0,1-2.16,1.83c-1.55,0-2.46-1.34-2.46-3A3.63,3.63,0,0,1,68.09,142.56Z"/><path class="cls-6" d="M68.31,159.48h-1v-9.82h1v4.28H69.7c.13-1.86.87-3,2.07-3s2.08,1.39,2.08,3.6-.77,3.61-2.08,3.61-1.93-1.11-2.07-3H68.31Zm2.34-4.94c0,1.49.4,2.35,1.12,2.35s1.12-.86,1.12-2.35-.41-2.34-1.12-2.34S70.65,153.07,70.65,154.54ZM74.47,159v-8.86h1v3.82H76.8v1.24H75.47V159Z"/><path class="cls-6" d="M77,169.71H66.1v-1.25H72v-2.08h1v2.08h4Zm-7.33-7.28A25.44,25.44,0,0,0,70,166.8l-1,.11a25.77,25.77,0,0,1-.33-4.87v-.85H76v5H75v-3.79H73v3.34H72v-3.34Z"/><path class="cls-6" d="M67.23,181.06h-1V173.7H69.1v5.79H70v-5.82h1v7.05H68.18v-5.79h-1Zm7-1.57v-2.88h1v2.88h1.66v1.23H71.4v-1.23Zm-2.1-1.33a26.68,26.68,0,0,1-.41-4.93v-.87h4.7v1.24H72.78a22.67,22.67,0,0,0,.41,4.4Z"/><path class="cls-6" d="M265.71,123v6.92h-3.93V123Zm-2.95,1.23v4.48h2v-4.48Zm6.11,7.23v-1.54h-2.69v-1.23h6.3v1.23h-2.59v1.54Zm-2.25-4.3a4.25,4.25,0,0,1,2.31-2.48,4.39,4.39,0,0,1-2.61-2.65l1-.66a3.78,3.78,0,0,0,3.61,2.65h1v1.25h-1a3.6,3.6,0,0,0-3.36,2.54Z"/><path class="cls-6" d="M262.75,141.71h-1v-7.39h2.84v5.85h.9v-5.88h1v7.1h-2.78v-5.86h-1Zm4.23-.32v-1.23h5.51v1.23Zm.27-5.89a2.47,2.47,0,1,1,2.43,2.86A2.56,2.56,0,0,1,267.25,135.5Zm1,0a1.44,1.44,0,1,0,1.42-1.63A1.47,1.47,0,0,0,268.26,135.5Z"/><path class="cls-6" d="M272.49,152.74H261.66v-1.17h5.54v-1.29h-5v-1.16h10.07v1.16h-4.05v1.29h4.28Zm-7.24-7.66a16.38,16.38,0,0,0,.3,3.35l-1,.1a18.89,18.89,0,0,1-.3-3.94v-.72h7v4h-1v-2.79Z"/><path class="cls-6" d="M263.94,164.36h-1v-9.81h1v4.27h1.84v-3.08h3.49V162h1.46v-6.26h1v7.49h-3.43V157h-1.51v6.49h-1v-3.39h-1.84Z"/><rect class="cls-5" x="279.2" y="89.82" width="54.72" height="14.3" rx="7.15"/><path class="cls-6" d="M297.41,97.58v.79c1.63.1,2.58.62,2.58,1.49s-1.15,1.52-3.11,1.52-3.11-.54-3.11-1.52,1-1.4,2.61-1.49v-.79h-3.57v-.82H301v.82Zm-4.18-2c1.81-.13,2.94-.76,3.07-1.56h-2.67v-.81h2.75v-.86h1v.86h2.75V94h-2.67c.13.8,1.26,1.43,3.07,1.56l-.32.79a4.51,4.51,0,0,1-3.35-1.45,4.47,4.47,0,0,1-3.35,1.45Zm3.65,3.54c-1.33,0-2.06.25-2.06.74s.73.74,2.06.74,2.07-.25,2.07-.74S298.22,99.12,296.88,99.12Z"/><path class="cls-6" d="M310.2,98.35h-3.61v3h-1v-3H302v-.83h8.19Zm-1-1.94H303V92.84h6.17Zm-1-2.75H304v1.92h4.13Z"/><path class="cls-6" d="M319.4,99.47v.85h-8.18v-.85h3.56V97.94h-2.57V95h5.2V93.82h-5.22V93h6.24v2.86h-5.21v1.26h5.41v.83h-2.82v1.53Z"/><path class="cls-6" d="M327.9,92.35V97.7h-1V96.47h-2.14a2.35,2.35,0,0,1-1.84.78,2.2,2.2,0,1,1,0-4.4,2.42,2.42,0,0,1,1.84.78h2.14V92.36Zm-3.64,2.7a1.37,1.37,0,1,0-1.37,1.32A1.3,1.3,0,0,0,324.26,95.05Zm-2.45,3.1h6.09v3.24h-1V99h-5.06Zm5.06-2.52V94.47h-1.7a2.63,2.63,0,0,1,.07.58,2.2,2.2,0,0,1-.08.58Z"/><rect class="cls-5" x="34.38" y="0.75" width="74.3" height="14.3" rx="7.15"/><path class="cls-6" d="M56.79,7.1v.82H48.61V7.1ZM49.48,5c0-1,1.19-1.56,3.22-1.56S55.92,4,55.92,5s-1.2,1.55-3.22,1.55S49.48,6,49.48,5Zm1.14,6.46H56v.79H49.6V10h5.15V9.35H49.58V8.57h6.18v2.16H50.62ZM50.55,5c0,.51.75.78,2.15.78s2.15-.27,2.15-.78-.75-.79-2.15-.79S50.55,4.5,50.55,5Z"/><path class="cls-6" d="M61.15,5.93a4.07,4.07,0,0,0,2.34,3.66l-.57.81a4.43,4.43,0,0,1-2.28-2.61,4.66,4.66,0,0,1-2.27,2.84l-.59-.82a4.42,4.42,0,0,0,2.33-3.88V5.07h-2V4.22h5.06v.85h-2Zm4.1-2.61v9h-1v-9Z"/><path class="cls-6" d="M75.2,10.44v.85H67v-.85h3.56V8.9H68V6h5.2V4.78H68V4h6.24V6.81H69V8.07h5.41V8.9H71.61v1.54Z"/><path class="cls-6" d="M81.18,5.83a2.42,2.42,0,0,1-4.79,0,2.42,2.42,0,0,1,4.79,0Zm-3.78,0a1.4,1.4,0,1,0,1.39-1.25A1.25,1.25,0,0,0,77.4,5.83Zm1.38,2.76v1h3.86v-1h1v3.65h-5.9V8.59Zm0,2.82h3.86v-1H78.78Zm4.88-8.09V8.17h-1V3.32Z"/><path class="cls-6" d="M93.59,8.58H90v3.77H89V8.58H85.42V7.73h5.87a13.74,13.74,0,0,0,.26-3H86.4V3.87h6.16v.79a15.87,15.87,0,0,1-.23,3.07h1.26Z"/><path class="cls-6" d="M102.1,3.31V8.66h-1V7.43H98.93a2.35,2.35,0,0,1-1.84.78,2.2,2.2,0,1,1,0-4.4,2.42,2.42,0,0,1,1.84.78h2.14V3.32ZM98.46,6a1.37,1.37,0,1,0-1.37,1.32A1.3,1.3,0,0,0,98.46,6ZM96,9.11h6.09v3.25h-1V9.94H96Zm5.06-2.52V5.43h-1.7a2.63,2.63,0,0,1,.07.58,2.2,2.2,0,0,1-.08.58Z"/><rect class="cls-5" x="12.25" y="89.32" width="46.34" height="14.3" rx="7.15"/><path class="cls-6" d="M30.29,98.76c.81-.05,1.63-.1,2.4-.21l.07.75a35.14,35.14,0,0,1-5.77.37l-.13-.85c.72,0,1.55,0,2.4,0v-.88a1.75,1.75,0,0,1-1.69-1.65c0-1,.9-1.67,2.21-1.67s2.2.66,2.2,1.67-.67,1.49-1.69,1.65Zm2.21-4.61H27v-.83h2.22v-1h1v1H32.5Zm-2.72,3c.72,0,1.22-.34,1.22-.9s-.5-.89-1.22-.89-1.23.34-1.23.89S29.05,97.16,29.78,97.16Zm4.46-4.9v9h-1v-9Z"/><path class="cls-6" d="M41,94.12H36V93.3h2v-1h1v1H41ZM38.57,98a1.77,1.77,0,1,1,0-3.49,1.77,1.77,0,1,1,0,3.49Zm0-.81c.66,0,1.11-.35,1.11-.93a1.12,1.12,0,0,0-2.21,0C37.47,96.87,37.92,97.22,38.57,97.22Zm5.13,3.06v.84H37.61V98.57h1v1.71Zm-1.24-2.94H41.08v-.83h1.38V95.44H41.08V94.6h1.38V92.27h1v6.88h-1Z"/><path class="cls-6" d="M52.69,92.26V97.6h-1V96.37H49.52a2.35,2.35,0,0,1-1.84.78,2.2,2.2,0,1,1,0-4.39,2.42,2.42,0,0,1,1.84.78h2.14V92.27ZM49.05,95a1.37,1.37,0,0,0-2.74,0,1.37,1.37,0,0,0,2.74,0ZM46.6,98.05h6.09v3.25h-1V98.88H46.6Zm5.06-2.51V94.38H50A2.63,2.63,0,0,1,50,95a2.2,2.2,0,0,1-.08.58Z"/><path class="cls-6" d="M25.75,29.94v.82H17.57v-.82h3.57v-.78H18.61V26.89H23.7v-.72H18.59v-.79h6.13v2.25h-5.1v.74H24.9v.79H22.17v.78Zm-3.56,1.41c0,1,1.14,1.8,2.95,2l-.35.78a4.28,4.28,0,0,1-3.13-1.58,4.28,4.28,0,0,1-3.13,1.58l-.35-.78c1.81-.2,2.95-1,2.95-2v-.16h1.06Z"/><path class="cls-6" d="M28.09,31.21A13,13,0,0,0,30.87,31l.09.85a15.85,15.85,0,0,1-3.28.25h-.6V26.19h3.41V27h-2.4Zm3.56-5.89h1v8.41h-1V29.35H29.87v-.84h1.78Zm2.83-.2v9h-1v-9Z"/><path class="cls-6" d="M44.15,32.33v.85H36v-.85h3.56V31.17C38,31.06,37,30.44,37,29.44s1.15-1.73,3-1.73,3,.64,3,1.73-.93,1.61-2.48,1.73v1.16Zm-.42-5.14H36.35v-.83h3.18V25.25h1v1.11h3.17ZM40,30.38c1.24,0,2-.34,2-.94s-.72-.93-2-.93-2,.34-2,.93S38.8,30.38,40,30.38Z"/><path class="cls-6" d="M49.43,29.45a17.76,17.76,0,0,1-3.29.23h-.59v-4H49v.81H46.53v.79h2.09V28H46.53v.86a15.44,15.44,0,0,0,2.8-.22Zm3.71,3.83v.8H46.8V31.8h5v-.66h-5v-.8h6v2.21h-5v.73Zm-3-5.36H49V27.1h1.07V25.29h1v4.6h-1Zm2.72,2h-1V25.14h1Z"/><path class="cls-6" d="M17.31,45.38v.82H9.13v-.82H12.7V44.6H10.17V42.33h5.09v-.72h-5.1v-.79h6.12v2.25h-5.1v.74h5.28v.79H13.73v.78Zm-3.56,1.41c0,1,1.14,1.8,2.95,2l-.35.78A4.28,4.28,0,0,1,13.22,48a4.28,4.28,0,0,1-3.13,1.58l-.34-.78c1.8-.2,2.94-1,2.94-2v-.16h1.06Z"/><path class="cls-6" d="M19.66,46.65a13,13,0,0,0,2.77-.25l.09.85a15.81,15.81,0,0,1-3.27.25h-.61V41.63h3.41v.84H19.66Zm3.55-5.89h1v8.41h-1V44.79H21.43V44h1.78Zm2.83-.2v9h-1v-9Z"/><path class="cls-6" d="M31.42,45.43H27.9V41.15h1V42.5h1.59V41.15h1Zm-1-2.12H28.87V44.6h1.59ZM29,46.49h6.13v3.12h-1v-2.3H29Zm6.13-5.92V46h-1V43.7h-.95V46h-1V40.74h1v2.12h.95V40.57Z"/><path class="cls-6" d="M40,47.06c.77,0,1.54-.09,2.26-.2l.08.76a32.9,32.9,0,0,1-5.56.36l-.15-.85c.7,0,1.5,0,2.34,0v-.88a1.72,1.72,0,0,1-1.64-1.64c0-1,.87-1.69,2.16-1.69s2.16.67,2.16,1.69A1.72,1.72,0,0,1,40,46.22Zm2.16-4.62H36.79v-.83H39v-1h1v1h2.16Zm-2.67,3c.71,0,1.19-.34,1.19-.89s-.48-.9-1.19-.9-1.2.34-1.2.9S38.77,45.47,39.48,45.47Zm5.59-.28H43.79V49.6h-1v-9h1v3.78h1.28Z"/><path class="cls-6" d="M50.79,45.59a3.52,3.52,0,0,1-2.11-1.93,3.71,3.71,0,0,1-2.22,2.13L45.93,45a3.14,3.14,0,0,0,2.21-2.91v-.15h-1.9v-.83h4.82v.83H49.18v.15a3,3,0,0,0,2.11,2.72Zm-3.31.64h5.93v3.26H47.48Zm1,2.44H52.4V47.05H48.49Zm4.92-8.11v5.26h-1V43.6h-1.6v-.84h1.6v-2.2Z"/><path class="cls-6" d="M4.91,67.76A3.66,3.66,0,0,1,2.75,65.7,3.87,3.87,0,0,1,.53,67.93L0,67.1A3.32,3.32,0,0,0,2.21,64v-.9h1V64a3.13,3.13,0,0,0,2.18,3Zm2.76,2.83v.84H1.51V68.56h1v2Zm-.26-1.41h-1v-6.6h1Z"/><path class="cls-6" d="M11.94,65a4.37,4.37,0,0,0,1.76,3.75l-.58.8a4.12,4.12,0,0,1-1.67-2.39,4.35,4.35,0,0,1-1.78,2.59L9,69A4.52,4.52,0,0,0,10.94,65V63.4h1Zm2.12-2.24h1v8.44h-1V66.57H12.73v-.84h1.33Zm2.82-.17v9h-1v-9Z"/><path class="cls-6" d="M23.28,62.79h1v8.37h-1v-3H21.8v-.84h1.48V65.85H22a6.36,6.36,0,0,1-3.06,3.84L18.31,69a5.5,5.5,0,0,0,2.91-4.45H18.75v-.83h3.49a8.16,8.16,0,0,1-.1,1.33h1.14Zm2.81-.22v9h-1v-9Z"/><path class="cls-6" d="M31.46,67.43H27.93V63.15h1V64.5h1.6V63.15h1Zm-1-2.12H28.9V66.6h1.6Zm-1.42,3.18h6.13v3.12h-1v-2.3h-5.1Zm6.13-5.92V68h-1V65.7h-.95V68h-1V62.74h1v2.12h.95V62.57Z"/><path class="cls-6" d="M40,69.06c.77,0,1.54-.09,2.26-.2l.08.76A33,33,0,0,1,36.8,70l-.14-.85c.69,0,1.5,0,2.34,0v-.88a1.73,1.73,0,0,1-1.65-1.64c0-1,.88-1.69,2.17-1.69s2.16.67,2.16,1.69A1.72,1.72,0,0,1,40,68.22Zm2.16-4.62H36.82v-.83H39v-1h1v1h2.16Zm-2.67,3c.71,0,1.19-.34,1.19-.89s-.48-.9-1.19-.9-1.2.34-1.2.9S38.81,67.47,39.52,67.47Zm5.58-.28H43.83V71.6h-1v-9h1v3.78H45.1Z"/><path class="cls-6" d="M50.83,67.59a3.52,3.52,0,0,1-2.11-1.93,3.7,3.7,0,0,1-2.23,2.13L46,67a3.15,3.15,0,0,0,2.22-2.91v-.15H46.27v-.83H51.1v.83H49.22v.15a3,3,0,0,0,2.11,2.72Zm-3.31.64h5.93v3.26H47.52Zm1,2.44h3.91V69.05H48.53Zm4.92-8.11v5.26h-1V65.6h-1.6v-.84h1.6v-2.2Z"/><path class="cls-6" d="M216.31,40.79h-4.18V36.72h4.18v.72h1.88V36.05h1v5.32h-1v-1.3h-1.88Zm-1-3.25h-2.17V40h2.17Zm3.95,5.81c0,1.09-1.16,1.73-3,1.73s-3-.64-3-1.73,1.16-1.73,3-1.73S219.26,42.26,219.26,43.35Zm-1,0c0-.59-.74-.92-2-.92s-2,.33-2,.92.73.93,2,.93S218.23,44,218.23,43.35Zm-1.92-5.07v.95h1.88v-.95Z"/><path class="cls-6" d="M229.11,40.41v.84H221v-.84h3.56v-.9H222V36.45h6.15v.82H223v1.41h5.19v.83h-2.63v.9Zm-1,3c0,1.05-1.17,1.65-3.11,1.65s-3.11-.6-3.11-1.65,1.18-1.64,3.11-1.64S228.11,42.4,228.11,43.44Zm-1,0c0-.55-.75-.85-2.07-.85s-2.06.3-2.06.85.74.85,2.06.85S227.07,44,227.07,43.44Z"/><path class="cls-6" d="M235,41a3.51,3.51,0,0,1-2.06-1.91,3.73,3.73,0,0,1-2.25,2.18l-.54-.83a3.16,3.16,0,0,0,2.24-3v-.89h1v.84a2.94,2.94,0,0,0,2.12,2.83Zm2.71,2.34c0,1.09-1.16,1.73-3,1.73s-3-.64-3-1.73,1.16-1.73,3-1.73S237.66,42.26,237.66,43.35Zm-1,0c0-.59-.74-.92-2-.92s-2,.33-2,.92.73.92,2,.92S236.63,43.94,236.63,43.35Zm0-4.66h-1.83v-.84h1.83V36h1v5.33h-1Z"/><path class="cls-6" d="M244.63,40.45a19.83,19.83,0,0,1-4.21.3h-.73v-4h4v.84h-3v2.37a17.17,17.17,0,0,0,3.8-.3Zm1.86,2.85c0,1.11-1.16,1.79-3,1.79s-3-.68-3-1.79,1.16-1.77,3-1.77S246.49,42.2,246.49,43.3Zm-1,0c0-.61-.74-.94-2-.94s-2,.33-2,.94.74,1,2,1S245.47,43.91,245.47,43.3Zm2.2-5v.85h-1.26v2.2h-1v-5.3h1V38.3Z"/><circle class="cls-7" cx="19.7" cy="96.46" r="5.24"/><path class="cls-6" d="M20,100.11V98H16.35V97.3l3.48-5H21v4.84h1.09V98H21v2.12Zm0-3v-2.6c0-.41,0-.81,0-1.22h0c-.24.45-.44.79-.65,1.15l-1.91,2.65v0Z"/><circle class="cls-8" cx="141.1" cy="96.96" r="5.24"/><path class="cls-6" d="M141.38,101.11V99h-3.62V98.3l3.48-5h1.13v4.84h1.1V99h-1.1v2.12Zm0-3v-2.6c0-.41,0-.81,0-1.22h0c-.24.45-.43.79-.65,1.15l-1.91,2.65v0Z"/><circle class="cls-9" cx="286.44" cy="96.96" r="5.24"/><path class="cls-6" d="M286.72,100.61V98.49H283.1V97.8l3.48-5h1.14v4.84h1.09v.83h-1.09v2.12Zm0-3v-2.6c0-.41,0-.81,0-1.22h0c-.24.45-.43.79-.65,1.15l-1.9,2.65v0Z"/><circle class="cls-10" cx="41.65" cy="7.9" r="5.24"/><path class="cls-6" d="M39.21,11.55V10.9l.83-.8c2-1.9,2.89-2.91,2.9-4.08A1.39,1.39,0,0,0,41.39,4.5a2.66,2.66,0,0,0-1.65.66l-.34-.75a3.46,3.46,0,0,1,2.21-.79A2.2,2.2,0,0,1,44,5.89c0,1.44-1,2.6-2.69,4.18l-.62.58v0h3.5v.88Z"/><circle class="cls-6" cx="61.13" cy="30.1" r="3.28"/><circle class="cls-6" cx="61.13" cy="44.57" r="3.28"/><circle class="cls-6" cx="256.79" cy="41.02" r="3.28"/><circle class="cls-6" cx="61.13" cy="67.31" r="3.28"/><rect class="cls-11" x="192.77" y="87.87" width="42.55" height="18.19"/><path class="cls-6" d="M203.09,99a25.52,25.52,0,0,0,2.8-.28l.1.91a38.27,38.27,0,0,1-6.9.48l-.15-1c.85,0,1.87,0,2.91,0V97.41h-2.12V92.25h5.6v1H201v1.06h4.13v1H201v1.12h4.39v1h-2.26Zm4.71-7.67v10.87h-1.25V91.29Z"/><path class="cls-6" d="M215.82,91.58H217v10h-1.15V98H214V97h1.78V95.25h-1.59a7.64,7.64,0,0,1-3.67,4.61l-.7-.88a6.6,6.6,0,0,0,3.49-5.34h-3v-1h4.19a10.16,10.16,0,0,1-.12,1.59h1.37Zm3.37-.26v10.83H218V91.32Z"/><path class="cls-6" d="M230.78,99.86v1H221v-1h4.27V98h-3.08V94.52h6.23V93.07h-6.26v-1h7.49V95.5h-6.25V97h6.49v1h-3.39v1.85Z"/></g></g></svg>