<svg xmlns="http://www.w3.org/2000/svg" viewBox="0 0 441.27 718.94"><defs><style>.cls-1{fill:none;stroke:#000;stroke-miterlimit:10;stroke-width:2px;}</style></defs><g id="Layer_2" data-name="Layer 2"><g id="Layer_1-2" data-name="Layer 1"><path class="cls-1" d="M162.66,247.08l17.84-15.54c12.17,5.82,12.27,17.27,13.58,26.55a164.43,164.43,0,0,1-3.4,63.74c-.93,3.67.06,8,.89,11.89,2.57,11.93,11.19,16.85,22.79,12.93,16.59-5.62,30.41-16,43.7-26.93,14.52-12,28.54-24.54,43-37.06,5.84,4.26,4,10.42,2.57,15.15-3.56,11.52-8.54,22.59-12.65,33.95-8.68,24-8,48.84-5.82,73.69.38,4.42,3.14,8.64,4.46,12.07-9.36,34.81-33.33,57.13-60.05,78-10.35,8.06-18.51,19.56-25.91,30.66-12,18.06-25.31,34.79-42,48.65-23.76,19.7-38.3,45.12-45.58,74.76-2.52,10.25,1.35,14.16,11.73,17.08,5.91,1.66,12.71,3.81,16.69,8,11.41,12.1,23.39,9.06,36.07,3.74,1.64-.69,3.31-1.33,5-2"/><path class="cls-1" d="M186.52,186.32c4.64-12,9.45-23.85,13.87-35.88,3.19-8.67,3.47-17.58-3.11-24.72-3.25-3.53-8.41-5.28-13.78-8.49-3.13,8.79-4.69,16-8.12,22.16-4.85,8.74-10.21,17.49-16.91,24.83-9.81,10.74-14.67,22.41-13.82,37,2.34,40.26,6.6,80.06,23,117.55,9.69,22.21,11.62,46.06,13.83,69.73,2.63,28.16,4.44,56.4,8,85.75l14.37-27.06,12.37,8.28c-5,5.74-8.51,10.63-12.86,14.62-9.36,8.57-20.12,15.8-28.58,25.14-28.34,31.27-63.38,53.44-98.58,75.65C50.68,587,25.74,604,.55,620.62"/><path class="cls-1" d="M354.6,509.06l-22.18,9.43c-3.51-6.11-2.61-12.78,1.3-19.39,6.22-10.5,11.22-20.76,7.37-34-1.76-6,2.13-12.57,9.09-14.54,16.83,3.7,6.26,25.11,21.14,31.38l4.63-4.64c-1.44-3.79-2.09-6.65-3.51-9.06-6.66-11.2-7.06-13.45,2.15-21.83,16.24-14.76,31.25-30.38,41.64-49.94,3.82-7.21,7.56-14.49,10.83-22,1.16-2.62,1.2-5.93,1.06-8.9-.84-18.15,2.87-35.63,8.12-52.77,5.62-18.32,6.72-35.08-5.69-52.1-9.89-13.57-13.61-30.28-13.46-47.54a31.38,31.38,0,0,0-3-13.85c-3.59-7.22-10.5-8-16.73-3.11-11.24,8.79-10.81,21.53-12,33.89-1.42,15-3.25,29.89-4.95,44.83-.05.36-.63.66-1,1"/><path class="cls-1" d="M370.51,355.66c2.65-10,5.63-19.85,7.89-29.9,5-22.36,2.25-44.26-4.94-65.72-5.47-16.33-10.62-32.8-17-48.75-6.75-16.77-8.79-34.15-9.77-51.87s-.66-35.4-3.32-52.74c-3.4-22.24-16.91-40.55-27.73-59.69-3.23-5.7-9.23-8.19-14.7-1.13"/><path class="cls-1" d="M252.16,117.58,245,114l-.87,3.44c9.58,1.36,19.11,4.24,30.15-.87.88-4.8,1.94-9.84,2.71-14.92,2.06-13.6,4.81-27.17,5.64-40.86C283,54.27,280.73,47,277.72,41A14.65,14.65,0,0,0,261.12,33c-6.94,1.43-10.27,6.11-12.05,12.88-4.31,16.36-8.84,32.68-13.92,48.81-4.13,13.11-10.05,25.7-13.52,39-2.51,9.56-2.73,19.82-3.2,29.81-1.54,32.86-2.7,65.74-4.1,98.61-.21,5-1,10-1.73,17.47L195.47,257"/><path class="cls-1" d="M145.75,718.24c19.89-20.25,40.28-40,59.47-60.94,10.46-11.4,22.19-21.39,36.14-26.31,41.51-14.63,65.27-45.39,81.42-84.07,3.56-8.53,7.26-17,11.06-25.88-2.71-.9-5.24-.94-6-2.1-6.22-10-16-9.8-26-10-23.21-.39-46.41-1.48-69.62-1.67-4,0-7.93,2.94-11.89,4.53l-.06,3.77c4,2.47,7.91,7,12,7.07,23.85.68,47.73.56,71.59.2,7.31-.11,14.59-1.86,21.88-2.85"/><path class="cls-1" d="M427.19,377.57c.51,14.07-3.59,27-8.88,39.87C409.45,438.93,402,461,392.11,482c-9.31,19.87-24.07,35-45.32,43.35-5.71,2.26-8.88.34-13.08-1.38"/><path class="cls-1" d="M393.38,208.23a101.07,101.07,0,0,0,4.6,39c3.41,10.67,8.22,18.69,18.18,24,3.57,1.89,6.07,5.82,8.89,8.64-8,11-29,15.37-43.6,10.11"/><path class="cls-1" d="M291,414.43c3-6,6.67-11.71,8.83-18,10-28.87,28.42-51.74,49.76-72.76,4.22-4.15,7.4-9.34,11.5-14.62-16.89-2.79-43.55,29.72-47.22,55.54"/><path class="cls-1" d="M307.85,135.51c1,1,2.88,2,2.86,3-.49,17.93-1,35.87-1.94,53.79-.57,10.65-1.83,21.26-2.95,31.87-.39,3.69-1.28,7.31-1.94,11"/><path class="cls-1" d="M379.46,289.91c-1.33,4-3.14,7.88-3.89,12-2.55,13.91-4.89,27.85-6.91,41.84-.36,2.51,1.18,5.3,1.85,7.95"/><path class="cls-1" d="M270.06,32.91V1C285,1.59,295.44,13.66,297,30.91c2,22,3.71,44,7.11,65.72s2.06,43.14.93,64.79c-.63,12.24.49,24.56.82,36.85"/><path class="cls-1" d="M274,117.58c4.9,7.51-.52,14-2,20.92-2.2,10.25-9.39,19.54-6,30.88"/><path class="cls-1" d="M263.1,179.34c2,10.3,4.18,20.56,5.91,30.89,1.46,8.82-1.55,16.94-4.91,24.9"/><path class="cls-1" d="M261.11,175.36c-10.87-6-18.4-3.28-22,8.23,9.68,3,16.74-2.36,24-7.24"/><path class="cls-1" d="M264.1,185.32l2,38.85"/><path class="cls-1" d="M416.26,286.92c-5.92-1.63-11.9-1.82-17.14-6.72-7.49-7-10.51-5.89-17.67,2.74"/><path class="cls-1" d="M307.85,238.11c-6.74-4.34-13.72-6.45-21.9-4.07-12.33,3.59-25.79,1.1-37.85,6.9-1.73.83-4.54-.58-7.25-1L226.3,251.06"/><path class="cls-1" d="M164.64,185.32l21.74,5-6.82,41.85"/><path class="cls-1" d="M292.94,150.46c1.15-4.77,3.11-6.67,8.77-1.28l-26.26,5.54L264.1,174.36"/><path class="cls-1" d="M309.84,239.11c10.28,2,20.51,4.27,30.85,5.83,3.85.58,7.94-.52,11.92-.85"/><path class="cls-1" d="M327.74,118.58l13.42,5.34c-1.28-9.06-6.47-7-10.43-7.33l-22.88-2"/><path class="cls-1" d="M349.62,241.1H325.75"/><path class="cls-1" d="M246.19,242.1c-5.3,4-10.45,8.2-16,11.75-1.12.71-3.86-1.13-5.85-1.79"/><path class="cls-1" d="M184.53,217.2l3,17.93"/><path class="cls-1" d="M159.67,182.33c4,.67,8,1.12,11.92,2.07,2.42.59,4.66,1.92,7,2.91"/><path class="cls-1" d="M306.86,229.15c2.62,5.64,4.54,11.29-1,18.63v-7.67"/><path class="cls-1" d="M170.61,238.11l-5,6"/></g></g></svg>