<svg width="206" height="538" xmlns="http://www.w3.org/2000/svg" xmlns:xlink="http://www.w3.org/1999/xlink" xml:space="preserve" overflow="hidden"><g transform="translate(-417 -129)"><path d="M102.312 357.791C103.418 355.792 104.571 353.833 105.644 351.794 114.666 334.296 121.696 316.124 120.796 296.047 119.744 272.771 123.049 249.929 126.127 227 127.327 218.024 129.412 208.495 120.023 201.165 106.49 214.332 92.703 226.88 79.969 240.433 70.64 250.355 66.4353 263.402 61.8375 276.103 55.2206 294.375 49.7565 313.092 39.568 330.004 33.9613 339.179 26.9966 347.452 18.9111 354.54 15.9172 357.134 13.4609 360.289 11.6812 363.828 9.62213 368.22 12.9606 372.631 18.1514 373.011 30.3723 373.904 40.8807 369.133 50.5895 362.389 59.3054 356.359 64.976 347.836 69.967 338.614 73.3199 332.674 77.3008 327.111 81.8414 322.022 88.6849 314.099 88.7515 312.286 81.8414 304.61 79.096 301.551 77.0837 297.726 75.2778 293.995 74.7381 292.862 76.0175 290.85 76.8904 287.698L87.0523 301.371" stroke="#000000" stroke-width="1.33271" stroke-miterlimit="10" fill="none" transform="matrix(1 0 0 1.00124 417.122 129)"/><path d="M178.523 0C179.542 37.0625 179.362 74.2583 186.612 110.821 189.757 126.694 193.336 142.653 198.713 157.866 203.924 172.612 206.889 186.819 203.884 202.511 200.645 219.39 200.119 236.855 196.088 253.507 191.023 274.411 183.673 294.761 177.143 315.298 175.491 320.496 173.218 325.493 171.233 330.584" stroke="#000000" stroke-width="1.33271" stroke-miterlimit="10" fill="none" transform="matrix(1 0 0 1.00124 417.122 129)"/><path d="M84.4202 69.0474C91.5502 77.2969 93.4293 87.9919 97.7006 97.5807 100.193 103.178 101.959 109.535 105.843 114 113.173 122.449 115.745 132.657 118.804 142.753 122.755 155.747 126.187 168.894 129.932 182.287 136.889 179.182 137.195 173.105 137.362 167.288 137.628 157.999 137.202 148.697 137.508 139.414 137.755 131.964 139.747 124.934 146.744 120.883 154.074 116.612 164.109 121.763 167.101 132.151 170.433 143.686 172.699 155.533 175.164 167.294 177.356 177.763 180.302 187.851 185.726 197.207 189.111 203.038 190.024 209.415 185.692 216.358 180.435 217.657 174.578 216.445 169.294 213.659 158.792 208.129 148.577 202.071 136.862 195.455 136.196 196.594 135.529 197.873 134.783 199.146" stroke="#000000" stroke-width="1.33271" stroke-miterlimit="10" fill="none" transform="matrix(1 0 0 1.00124 417.122 129)"/><path d="M179.182 288.757C183.3 284.652 182.661 279.248 184.86 274.617L182.194 273.758C180.975 277.209 179.455 280.588 178.596 284.126 176.846 291.376 175.291 298.675 173.931 306.022 172.634 313.068 171.524 320.147 170.6 327.259 169.107 339.007 166.748 350.375 161.477 361.203 158.619 367.087 157.946 374.004 155.946 380.347 150.982 396.093 145.731 411.746 140.807 427.505 139.681 431.123 139.474 435.015 138.748 438.766 135.243 457.511 123.742 471.644 111.514 485.171 98.287 499.791 86.8591 515.67 76.4306 532.342 75.3787 533.816 74.23 535.219 72.9922 536.54 64.2031 533.135 61.4644 526.105 63.8099 515.75 67.1417 500.97 75.018 488.503 83.8405 476.669 94.7353 462.055 103.878 446.683 108.222 428.798 108.575 427.339 108.269 425.713 108.269 424.133" stroke="#000000" stroke-width="1.33271" stroke-miterlimit="10" fill="none" transform="matrix(1 0 0 1.00124 417.122 129)"/><path d="M174.544 217.071C178.356 224.741 176.543 232.304 171.739 238.181 153.454 260.584 148.883 287.138 148.223 314.645 147.717 335.808 138.695 350.628 120.237 360.517 104.804 368.786 89.771 377.802 74.4116 386.218 72.1393 387.464 68.8409 389.83 66.5153 385.665" stroke="#000000" stroke-width="1.33271" stroke-miterlimit="10" fill="none" transform="matrix(1 0 0 1.00124 417.122 129)"/><path d="M74.4782 405.582C71.4996 412.632 64.1897 413.692 58.4858 416.75 43.866 424.613 28.7998 431.643 14.24 439.606 10.2951 441.765 6.75015 445.603 4.36461 449.488-0.666353 457.684-1.33271 459.817 7.16995 464.448L21.4632 462.655" stroke="#000000" stroke-width="1.33271" stroke-miterlimit="10" fill="none" transform="matrix(1 0 0 1.00124 417.122 129)"/><path d="M126.167 395.62C124.401 398.499 122.769 401.471 120.836 404.236 115.839 411.373 109.655 417.89 105.85 425.606 98.4336 440.639 84.6801 448.162 71.7462 456.565 55.9736 466.82 39.548 476.122 23.4623 485.918 16.259 490.296 14.6664 489.836 11.5212 481.919" stroke="#000000" stroke-width="1.33271" stroke-miterlimit="10" fill="none" transform="matrix(1 0 0 1.00124 417.122 129)"/><path d="M104.298 355.166C99.3931 362.296 92.7563 367.38 85.9195 372.651 71.3464 383.899 54.1611 390.183 38.6085 399.498 31.8716 403.496 26.4809 407.641 26.7874 416.23 26.7874 416.684 27.2072 417.117 28.1201 418.949 33.6375 417.437 39.5613 416.09 45.3053 414.198 64.3763 407.914 83.4473 401.537 101.605 392.915 107.396 390.156 112.694 386.365 118.218 383.046" stroke="#000000" stroke-width="1.33271" stroke-miterlimit="10" fill="none" transform="matrix(1 0 0 1.00124 417.122 129)"/><path d="M172.585 310.001C168.234 314.932 167.454 321.149 166.675 327.266 165.822 333.996 163.703 339.507 157.406 343.298 150.396 347.523 145.218 353.54 141.267 361.016 136.336 370.345 128.093 376.949 118.777 382.553 119.401 381.333 120.116 380.161 120.916 379.048 125.947 373.051 130.945 366.987 136.242 361.176 137.475 359.844 139.694 359.337 141.46 358.451" stroke="#000000" stroke-width="1.33271" stroke-miterlimit="10" fill="none" transform="matrix(1 0 0 1.00124 417.122 129)"/><path d="M136.109 201.805C137.788 207.909 143.919 207.715 148.15 209.501 153.421 211.727 159.525 211.98 165.269 213.086" stroke="#000000" stroke-width="1.33271" stroke-miterlimit="10" fill="none" transform="matrix(1 0 0 1.00124 417.122 129)"/><path d="M82.4278 436.774 98.7001 428.158 98.3336 426.825C97.0009 426.825 95.4017 426.339 94.4088 426.912 90.9638 428.911 86.919 430.61 84.5801 433.576 78.9828 440.712 70.5334 442.285 63.1969 446.023 60.2049 447.549 57.0264 448.688 53.9346 450.021" stroke="#000000" stroke-width="1.33271" stroke-miterlimit="10" fill="none" transform="matrix(1 0 0 1.00124 417.122 129)"/><path d="M51.9755 448.722 32.0915 457.384" stroke="#000000" stroke-width="1.33271" stroke-miterlimit="10" fill="none" transform="matrix(1 0 0 1.00124 417.122 129)"/><path d="M167.254 341.839C163.036 346.816 160.771 352.5 161.291 359.097" stroke="#000000" stroke-width="1.33271" stroke-miterlimit="10" fill="none" transform="matrix(1 0 0 1.00124 417.122 129)"/><path d="M93.6958 314.645 109.602 327.919" stroke="#000000" stroke-width="1.33271" stroke-miterlimit="10" fill="none" transform="matrix(1 0 0 1.00124 417.122 129)"/><path d="M89.7177 308.008 92.3831 312.006" stroke="#000000" stroke-width="1.33271" stroke-miterlimit="10" fill="none" transform="matrix(1 0 0 1.00124 417.122 129)"/><path d="M56.5867 448.062 53.2549 449.395" stroke="#000000" stroke-width="1.33271" stroke-miterlimit="10" fill="none" transform="matrix(1 0 0 1.00124 417.122 129)"/></g></svg>