<svg xmlns="http://www.w3.org/2000/svg" viewBox="0 0 308.78 806.38"><defs><style>.cls-1{fill:none;stroke:#000;stroke-miterlimit:10;stroke-width:2px;}</style></defs><g id="Layer_2" data-name="Layer 2"><g id="Layer_1-2" data-name="Layer 1"><path class="cls-1" d="M153.54,536.94c1.66-3,3.39-5.94,5-9,13.54-26.26,24.09-53.53,22.74-83.66-1.58-34.93,3.38-69.21,8-103.62,1.8-13.47,4.93-27.77-9.16-38.77-20.31,19.76-41,38.59-60.11,58.93-14,14.89-20.31,34.47-27.21,53.53-9.93,27.42-18.13,55.51-33.42,80.89a159.72,159.72,0,0,1-31,36.82A45.48,45.48,0,0,0,17.53,546c-3.09,6.59,1.92,13.21,9.71,13.78,18.34,1.34,34.11-5.82,48.68-15.94C89,534.79,97.51,522,105,508.16a143,143,0,0,1,17.82-24.9c10.27-11.89,10.37-14.61,0-26.13-4.12-4.59-7.14-10.33-9.85-15.93-.81-1.7,1.11-4.72,2.42-9.45l15.25,20.52" transform="translate(0 0)"/><path class="cls-1" d="M267.91,0c1.53,55.62,1.26,111.44,12.14,166.31,4.72,23.82,10.09,47.77,18.16,70.6,7.82,22.13,12.27,43.45,7.76,67-4.86,25.33-5.65,51.54-11.7,76.53-7.6,31.37-18.63,61.91-28.43,92.73-2.48,7.8-5.89,15.3-8.87,22.94" transform="translate(0 0)"/><path class="cls-1" d="M126.69,103.62c10.7,12.38,13.52,28.43,19.93,42.82,3.74,8.4,6.39,17.94,12.22,24.64,11,12.68,14.86,28,19.45,43.15,5.93,19.5,11.08,39.23,16.7,59.33,10.44-4.66,10.9-13.78,11.15-22.51.4-13.94-.24-27.9.22-41.83.37-11.18,3.36-21.73,13.86-27.81,11-6.41,26.06,1.32,30.55,16.91,5,17.31,8.4,35.09,12.1,52.74,3.29,15.71,7.71,30.85,15.85,44.89,5.08,8.75,6.45,18.32-.05,28.74-7.89,1.95-16.68.13-24.61-4.05-15.76-8.3-31.09-17.39-48.67-27.32-1,1.71-2,3.63-3.12,5.54" transform="translate(0 0)"/><path class="cls-1" d="M268.9,433.34c6.18-6.16,5.22-14.27,8.52-21.22l-4-1.29c-1.83,5.18-4.11,10.25-5.4,15.56q-3.94,16.32-7,32.86-2.92,15.86-5,31.87c-2.24,17.63-5.78,34.69-13.69,50.94-4.29,8.83-5.3,19.21-8.3,28.73-7.45,23.63-15.33,47.12-22.72,70.77-1.69,5.43-2,11.27-3.09,16.9-5.26,28.13-22.52,49.34-40.87,69.64-19.85,21.94-37,45.77-52.65,70.79a61.38,61.38,0,0,1-5.16,6.3c-13.19-5.11-17.3-15.66-13.78-31.2,5-22.18,16.82-40.89,30.06-58.65,16.35-21.93,30.07-45,36.59-71.84.53-2.19.07-4.63.07-7" transform="translate(0 0)"/><path class="cls-1" d="M261.94,325.76c5.72,11.51,3,22.86-4.21,31.68-27.44,33.62-34.3,73.47-35.29,114.75-.76,31.76-14.3,54-42,68.84-23.16,12.41-45.72,25.94-68.77,38.57-3.41,1.87-8.36,5.42-11.85-.83" transform="translate(0 0)"/><path class="cls-1" d="M111.77,608.66c-4.47,10.58-15.44,12.17-24,16.76-21.94,11.8-44.55,22.35-66.4,34.3-5.92,3.24-11.24,9-14.82,14.83C-1,686.85-2,690.05,10.76,697l21.45-2.69" transform="translate(0 0)"/><path class="cls-1" d="M189.34,593.71c-2.65,4.32-5.1,8.78-8,12.93-7.5,10.71-16.78,20.49-22.49,32.07-11.13,22.56-31.77,33.85-51.18,46.46C84,700.56,59.35,714.52,35.21,729.22c-10.81,6.57-13.2,5.88-17.92-6" transform="translate(0 0)"/><path class="cls-1" d="M156.52,533c-7.36,10.7-17.32,18.33-27.58,26.24-21.87,16.88-47.66,26.31-71,40.29-10.11,6-18.2,12.22-17.74,25.11,0,.68.63,1.33,2,4.08,8.28-2.27,17.17-4.29,25.79-7.13,28.62-9.43,57.24-19,84.49-31.94,8.69-4.14,16.64-9.83,24.93-14.81" transform="translate(0 0)"/><path class="cls-1" d="M259,465.22c-6.53,7.4-7.7,16.73-8.87,25.91-1.28,10.1-4.46,18.37-13.91,24.06-10.52,6.34-18.29,15.37-24.22,26.59-7.4,14-19.77,23.91-33.75,32.32a41,41,0,0,1,3.21-5.26c7.55-9,15.05-18.1,23-26.82,1.85-2,5.18-2.76,7.83-4.09" transform="translate(0 0)"/><path class="cls-1" d="M204.26,302.85c2.52,9.16,11.72,8.87,18.07,11.55,7.91,3.34,17.07,3.72,25.69,5.38" transform="translate(0 0)"/><path class="cls-1" d="M123.7,655.47l24.42-12.93-.55-2c-2,0-4.4-.73-5.89.13-5.17,3-11.24,5.55-14.75,10-8.4,10.71-21.08,13.07-32.09,18.68-4.49,2.29-9.26,4-13.9,6" transform="translate(0 0)"/><path class="cls-1" d="M78,673.4l-29.84,13" transform="translate(0 0)"/><path class="cls-1" d="M251,513c-6.33,7.47-9.73,16-8.95,25.9" transform="translate(0 0)"/><path class="cls-1" d="M140.61,472.19l23.87,19.92" transform="translate(0 0)"/><path class="cls-1" d="M134.64,462.23l4,6" transform="translate(0 0)"/><path class="cls-1" d="M84.92,672.41l-5,2" transform="translate(0 0)"/></g></g></svg>