<svg width="330" height="538" xmlns="http://www.w3.org/2000/svg" xmlns:xlink="http://www.w3.org/1999/xlink" xml:space="preserve" overflow="hidden"><g transform="translate(-352 -122)"><path d="M121.638 184.767 134.979 173.146C144.079 177.499 144.154 186.061 145.134 193.001 147.408 208.903 146.544 225.096 142.591 240.666 141.896 243.41 142.636 246.648 143.257 249.557 145.179 258.478 151.625 262.158 160.299 259.226 172.705 255.023 183.04 247.261 192.978 239.088 203.836 230.114 214.321 220.737 225.134 211.374 229.501 214.56 228.125 219.166 227.056 222.703 224.393 231.318 220.669 239.596 217.596 248.091 211.105 266.039 211.613 284.614 213.244 303.197 213.528 306.502 215.592 309.658 216.579 312.223 209.579 338.254 191.655 354.945 171.673 370.552 163.934 376.579 157.831 385.179 152.298 393.479 143.324 406.985 133.371 419.495 120.89 429.86 103.122 444.592 92.2491 463.601 86.805 485.766 84.9206 493.431 87.8146 496.355 95.5768 498.538 99.9963 499.78 105.081 501.387 108.058 504.521 116.59 513.569 125.549 511.296 135.031 507.317 136.257 506.801 137.506 506.323 138.77 505.822" stroke="#000000" stroke-width="1.49561" stroke-miterlimit="10" fill="none" transform="matrix(1.00005 0 0 1 352 122.187)"/><path d="M139.48 139.331C142.95 130.357 146.547 121.496 149.852 112.5 152.238 106.016 152.447 99.3532 147.527 94.0139 145.096 91.3741 141.238 90.0655 137.222 87.665 134.881 94.2382 133.715 99.6299 131.15 104.236 127.523 110.772 123.515 117.315 118.504 122.804 111.168 130.836 107.534 139.563 108.17 150.473 109.92 180.58 113.105 210.342 125.369 238.377 132.615 254.986 134.059 272.821 135.711 290.522 137.678 311.58 139.032 332.698 141.694 354.646L152.44 334.41 161.69 340.602C157.951 344.895 155.326 348.551 152.073 351.535 145.074 357.944 137.028 363.35 130.701 370.335 109.508 393.719 83.3053 410.297 56.9826 426.906 37.8987 438.961 19.2485 451.673 0.411292 464.102" stroke="#000000" stroke-width="1.49561" stroke-miterlimit="10" fill="none" transform="matrix(1.00005 0 0 1 352 122.187)"/><path d="M265.171 380.677 248.585 387.729C245.96 383.16 246.633 378.172 249.557 373.229 254.208 365.377 257.947 357.704 255.068 347.803 253.752 343.317 256.661 338.404 261.866 336.93 274.451 339.697 266.547 355.708 277.674 360.396L281.137 356.927C280.06 354.092 279.574 351.954 278.512 350.152 273.532 341.776 273.232 340.094 280.12 333.827 292.264 322.789 303.489 311.109 311.258 296.482 314.115 291.09 316.912 285.646 319.357 280.03 320.224 278.071 320.254 275.596 320.15 273.375 319.522 259.802 322.296 246.73 326.222 233.913 330.424 220.213 331.247 207.68 321.967 194.952 314.571 184.805 311.789 172.309 311.901 159.402 311.953 155.824 311.186 152.281 309.658 149.045 306.973 143.646 301.806 143.062 297.147 146.719 288.742 153.292 289.063 162.819 288.174 172.062 287.112 183.279 285.743 194.414 284.472 205.586 284.435 205.855 284.001 206.08 283.724 206.334" stroke="#000000" stroke-width="1.49561" stroke-miterlimit="10" fill="none" transform="matrix(1.00005 0 0 1 352 122.187)"/><path d="M277.069 265.964C279.05 258.486 281.279 251.12 282.969 243.605 286.708 226.884 284.651 210.507 279.275 194.459 275.184 182.247 271.333 169.931 266.562 158.003 261.514 145.463 259.989 132.466 259.256 119.215 258.523 105.964 258.762 92.7426 256.773 79.7757 254.231 63.1445 244.128 49.4523 236.037 35.1393 233.621 30.8768 229.135 29.0148 225.044 34.2943" stroke="#000000" stroke-width="1.49561" stroke-miterlimit="10" fill="none" transform="matrix(1.00005 0 0 1 352 122.187)"/><path d="M188.566 87.9268 183.212 85.2496 182.561 87.8221C189.725 88.8391 196.852 90.9927 205.108 87.1715 205.766 83.582 206.558 79.8131 207.134 76.0142 208.675 65.8441 210.731 55.6964 211.352 45.459 211.628 40.5833 209.931 35.1468 207.68 30.6599 205.471 25.9873 200.297 23.4939 195.266 24.6775 190.077 25.7469 187.587 29.2466 186.255 34.3092 183.032 46.5433 179.645 58.7475 175.846 70.8095 172.758 80.6132 168.331 90.0281 165.736 99.9739 163.859 107.123 163.694 114.795 163.343 122.266 162.191 146.839 161.324 171.427 160.277 196.007 160.12 199.746 159.529 203.485 158.983 209.071L146.173 192.186" stroke="#000000" stroke-width="1.49561" stroke-miterlimit="10" fill="none" transform="matrix(1.00005 0 0 1 352 122.187)"/><path d="M108.992 537.102C123.866 521.959 139.114 507.19 153.464 491.531 161.286 483.006 170.058 475.536 180.49 471.857 211.531 460.916 229.299 437.914 241.376 408.989 244.038 402.61 246.805 396.276 249.647 389.636 247.62 388.963 245.728 388.933 245.16 388.065 240.509 380.587 233.195 380.737 225.717 380.587 208.361 380.296 191.011 379.48 173.655 379.338 170.664 379.338 167.725 381.537 164.764 382.726L164.719 385.545C167.71 387.392 170.634 390.78 173.692 390.832 191.527 391.341 209.385 391.251 227.228 390.982 232.694 390.899 238.138 389.591 243.59 388.85" stroke="#000000" stroke-width="1.49561" stroke-miterlimit="10" fill="none" transform="matrix(1.00005 0 0 1 352 122.187)"/><path d="M319.454 282.348C319.836 292.87 316.77 302.539 312.814 312.163 306.188 328.233 300.617 344.737 293.221 360.441 286.259 375.3 275.222 386.614 259.331 392.859 255.061 394.549 252.69 393.113 249.55 391.827" stroke="#000000" stroke-width="1.49561" stroke-miterlimit="10" fill="none" transform="matrix(1.00005 0 0 1 352 122.187)"/><path d="M294.171 155.715C293.4 165.568 294.569 175.476 297.611 184.879 300.161 192.859 303.758 198.856 311.206 202.827 313.876 204.24 315.745 207.179 317.854 209.288 311.871 217.514 296.168 220.782 285.25 216.848" stroke="#000000" stroke-width="1.49561" stroke-miterlimit="10" fill="none" transform="matrix(1.00005 0 0 1 352 122.187)"/><path d="M217.611 309.912C219.854 305.425 222.599 301.155 224.214 296.452 231.692 274.863 245.467 257.76 261.425 242.042 264.58 238.938 266.958 235.057 270.024 231.109 257.394 229.022 237.458 253.333 234.713 272.642" stroke="#000000" stroke-width="1.49561" stroke-miterlimit="10" fill="none" transform="matrix(1.00005 0 0 1 352 122.187)"/><path d="M230.211 101.335C230.959 102.083 232.365 102.83 232.35 103.578 231.984 116.986 231.602 130.402 230.899 143.803 230.473 151.767 229.531 159.701 228.693 167.635 228.402 170.395 227.736 173.102 227.243 175.861" stroke="#000000" stroke-width="1.49561" stroke-miterlimit="10" fill="none" transform="matrix(1.00005 0 0 1 352 122.187)"/><path d="M283.762 216.796C282.767 219.787 281.413 222.688 280.853 225.769 278.946 236.171 277.196 246.596 275.685 257.057 275.416 258.934 276.568 261.021 277.069 263.003" stroke="#000000" stroke-width="1.49561" stroke-miterlimit="10" fill="none" transform="matrix(1.00005 0 0 1 352 122.187)"/><path d="M201.952 24.6102 201.952 0.747804C213.124 1.18901 220.931 10.215 222.098 23.1146 223.593 39.5663 224.872 56.018 227.415 72.2603 229.957 88.5026 228.955 104.521 228.11 120.71 227.639 129.864 228.476 139.077 228.723 148.267" stroke="#000000" stroke-width="1.49561" stroke-miterlimit="10" fill="none" transform="matrix(1.00005 0 0 1 352 122.187)"/><path d="M204.898 87.9268C208.562 93.5428 204.509 98.396 203.403 103.571 201.757 111.236 196.381 118.183 198.916 126.663" stroke="#000000" stroke-width="1.49561" stroke-miterlimit="10" fill="none" transform="matrix(1.00005 0 0 1 352 122.187)"/><path d="M196.747 134.111C198.243 141.813 199.873 149.486 201.167 157.211 202.258 163.806 200.008 169.879 197.495 175.831" stroke="#000000" stroke-width="1.49561" stroke-miterlimit="10" fill="none" transform="matrix(1.00005 0 0 1 352 122.187)"/><path d="M195.259 131.135C187.13 126.648 181.499 128.682 178.807 137.289 186.046 139.533 191.326 135.524 196.755 131.875" stroke="#000000" stroke-width="1.49561" stroke-miterlimit="10" fill="none" transform="matrix(1.00005 0 0 1 352 122.187)"/><path d="M197.495 138.583 198.991 167.635" stroke="#000000" stroke-width="1.49561" stroke-miterlimit="10" fill="none" transform="matrix(1.00005 0 0 1 352 122.187)"/><path d="M311.281 214.56C306.854 213.341 302.382 213.199 298.463 209.535 292.862 204.3 290.604 205.13 285.25 211.584" stroke="#000000" stroke-width="1.49561" stroke-miterlimit="10" fill="none" transform="matrix(1.00005 0 0 1 352 122.187)"/><path d="M230.211 178.06C225.171 174.814 219.951 173.236 213.834 175.016 204.614 177.701 194.549 175.839 185.53 180.176 184.236 180.796 182.135 179.742 180.109 179.428L169.228 187.744" stroke="#000000" stroke-width="1.49561" stroke-miterlimit="10" fill="none" transform="matrix(1.00005 0 0 1 352 122.187)"/><path d="M123.118 138.583 139.376 142.322 134.276 173.618" stroke="#000000" stroke-width="1.49561" stroke-miterlimit="10" fill="none" transform="matrix(1.00005 0 0 1 352 122.187)"/><path d="M219.062 112.515C219.922 108.948 221.387 107.527 225.62 111.557L205.983 115.7 197.495 130.387" stroke="#000000" stroke-width="1.49561" stroke-miterlimit="10" fill="none" transform="matrix(1.00005 0 0 1 352 122.187)"/><path d="M231.699 178.807C239.387 180.303 247.037 182 254.769 183.167 257.648 183.601 260.707 182.778 263.683 182.531" stroke="#000000" stroke-width="1.49561" stroke-miterlimit="10" fill="none" transform="matrix(1.00005 0 0 1 352 122.187)"/><path d="M245.085 88.6746 255.121 92.6678C254.163 85.8927 250.282 87.4332 247.321 87.1864L230.211 85.6908" stroke="#000000" stroke-width="1.49561" stroke-miterlimit="10" fill="none" transform="matrix(1.00005 0 0 1 352 122.187)"/><path d="M261.447 180.295 243.597 180.295" stroke="#000000" stroke-width="1.49561" stroke-miterlimit="10" fill="none" transform="matrix(1.00005 0 0 1 352 122.187)"/><path d="M184.102 181.043C180.138 184.034 176.287 187.175 172.137 189.83 171.299 190.361 169.25 188.985 167.762 188.491" stroke="#000000" stroke-width="1.49561" stroke-miterlimit="10" fill="none" transform="matrix(1.00005 0 0 1 352 122.187)"/><path d="M137.992 162.423 140.236 175.831" stroke="#000000" stroke-width="1.49561" stroke-miterlimit="10" fill="none" transform="matrix(1.00005 0 0 1 352 122.187)"/><path d="M119.402 136.347C122.393 136.848 125.384 137.185 128.316 137.895 130.125 138.336 131.8 139.331 133.55 140.071" stroke="#000000" stroke-width="1.49561" stroke-miterlimit="10" fill="none" transform="matrix(1.00005 0 0 1 352 122.187)"/><path d="M229.471 171.359C231.43 175.577 232.866 179.802 228.723 185.291L228.723 179.555" stroke="#000000" stroke-width="1.49561" stroke-miterlimit="10" fill="none" transform="matrix(1.00005 0 0 1 352 122.187)"/><path d="M127.583 178.06 123.844 182.546" stroke="#000000" stroke-width="1.49561" stroke-miterlimit="10" fill="none" transform="matrix(1.00005 0 0 1 352 122.187)"/></g></svg>