<svg xmlns="http://www.w3.org/2000/svg" viewBox="0 0 347.08 594.03"><defs><style>.cls-1{fill:#5e5243;}</style></defs><g id="Layer_2" data-name="Layer 2"><g id="Layer_1-2" data-name="Layer 1"><path class="cls-1" d="M245,34c-2.62-1.14-14.4,20.64-20,31a374.41,374.41,0,0,0-22,49,352.89,352.89,0,0,0-12,40c-4.18,16.59-6.23,24.91-4,26,3.42,1.67,15.88-14.25,24-31,7-14.47,9.15-26.16,11-35C232.35,64.5,248,35.34,245,34Z"/><path class="cls-1" d="M235,110c3.33,5.07,28.31-6.23,30-7,14.13-6.47,22.85-14.14,35-25,41.92-37.49,47.87-42.87,47-44-1.1-1.43-11.13,6.22-34,17-18.37,8.65-20.77,7.9-31,13C253.46,78.25,231.33,104.44,235,110Z"/><path class="cls-1" d="M287,0c1,.45-.45,5.92-1,8a46.12,46.12,0,0,1-5,12c-11.79,19.37-18.57,41.38-28,62-6.42,14-11.56,25.39-22,39-.84,1.09-2.61,3.29-4,5-10,12.32-15,18.49-16,18-2.53-1.21,4.61-27,19-54,10-18.81,12.44-17.33,30-46C275.1,19.36,285-.87,287,0Z"/><path class="cls-1" d="M210,155a65.29,65.29,0,0,1,15-8,151,151,0,0,1,19-6c15.35-4.08,23-6.11,29-8,15.15-4.79,13.22-5.81,27-10s17.28-3.67,28-8c7.62-3.08,19.66-8.93,19-11-.44-1.38-6.27-.29-42,6-16.42,2.89-32.46,7.93-49,10a33,33,0,0,0-11,3c-6.32,3-7.5,6.31-15,13-7,6.27-8.11,5.3-16,12a135.58,135.58,0,0,0-13,13,114.09,114.09,0,0,0-21,36c-.06,0,12.05-25.69,24-37A68.24,68.24,0,0,1,210,155Z"/><path class="cls-1" d="M151,248c.75-10,2.35-20,3-30,.4-6.18.82-4.79,10-44,8.64-36.92,4-20,7-32,3.79-15.26,6.74-24.42,4-26-2.22-1.28-6.95,3.1-9,5-7.65,7.08-13.92,17.18-21,43-3.59,13.09-5.38,19.64-6,27-.08,1-1.85,23.86,4,40,1.68,4.64,4.83,11,6,19,.16,1.08.55,4,1,4S150.89,249.47,151,248Z"/><path class="cls-1" d="M160,238c1.37,1,5-5.52,14-8,4.55-1.26,4.47.18,12-1,3.87-.61,4.17-1,16-4a75.07,75.07,0,0,1,9-2c5.56-.7,8,0,12,0,6.46,0,11.31-2,21-6,9.86-4.06,10.3-5.76,15-6,2.22-.11,5.61.09,16,5,13.63,6.44,18.07,10.94,19,10,1.55-1.57-6.93-17.85-23-24-4.26-1.63-11.95-4.58-20-2-5.64,1.8-7.69,5.1-15,6-.85.1-3.91.07-10,0-10.53-.12-10.75-.19-12,0-5.82.86-6.24,3-14,6-5.57,2.15-5.58,1.15-16,4-8.6,2.35-13,3.58-16,6C161,227.62,158.49,236.93,160,238Z"/><path class="cls-1" d="M176,208c.79,1,11.31-7.33,22-13,12.66-6.72,17.42-5.41,37-11,3.33-.95,16.89-6.3,44-17,29.05-11.46,33.86-13.61,37-18,1.23-1.72,5.38-8.23,13-11,1.79-.65,3-.82,3-1-.11-.77-23.3-.78-47,6-10.78,3.08-22.86,9.39-47,22-29.83,15.58-19.45,12.76-36,21a92.07,92.07,0,0,0-24,19C177.27,205.83,175.67,207.62,176,208Z"/><path class="cls-1" d="M148,265c5.91-5.46,7.13-6.39,9-7,.86-.28,2.69-.77,8,0,9.12,1.32,11.84,3.92,19,5,3.67.55,6.25.36,11,0,9.55-.72,17.64-2.75,28-6,9.18-2.89,20.53-6.86,35-13,16.95-7.2,22.28-8.9,22-10-.35-1.37-8.95-.27-11,0-15.1,1.94-19.94,6.71-33,8-2.89.28-.73-.14-12,0-16.94.21-25.56.36-33,3-5.12,1.81-6.11,3.09-11,4-7.16,1.33-9-.66-15,1-3.9,1.08-6.6,3.06-12,7a39.18,39.18,0,0,0-10,10c-.12.19-2.43,3.65-2,4S143.19,269.47,148,265Z"/><path class="cls-1" d="M118,201c1.45-.08,3.57,9.42,4,18,.16,3.27,0,4.78-1,16-1.62,18.27-1.86,21.9-2,26-.2,5.79-.11,10,0,15,.2,9.21.13,15.81,0,29-.06,5.75-.13,9.2-2,10-2.25,1-6-2.39-8-5-1.19-1.55-5.76-8.06-2-28,2.89-15.31,6.81-17.92,8-32,.43-5-.09-4.55,0-15C115,233.6,115.34,201.18,118,201Z"/><path class="cls-1" d="M117,319c1,1,6-5.7,16-8,2.94-.67,6.62-1,19,1,15.75,2.6,15.88,4.2,24,5,11.57,1.14,20.77-1.18,28-3,8.53-2.15,8-3.17,25-9,12.37-4.25,18.68-6.39,25-7a90.53,90.53,0,0,1,23,1c10,1.78,16,4.66,17,3s-3.86-6.41-7-9c-5.17-4.27-14.15-9.64-29-11-8-.73-9.65.42-21,1-15.55.8-17.35-1.11-43-2-16.6-.58-25.05-.83-32,1a71,71,0,0,0-28,15C122.86,306.42,115.77,317.82,117,319Z"/><path class="cls-1" d="M89,192a158.14,158.14,0,0,1,7,21c1,4,5,20.14,5,45,0,25.68-4.27,28.28-5,54a123.45,123.45,0,0,1-3,25c-1,4.5-2.12,8.12-3,11-4.26,14-6.81,16.81-8,26-.33,2.55-.33,3.86-1,9-1.09,8.43-1.67,12.65-3,13-2.51.66-7.32-7.48-10-15-3.33-9.35-3.27-17.44-3-24,.48-11.95.33-24.59,5-41,4-14.19,6.32-11.76,11-27,3.37-11,5.63-27.56,7-37,2.49-17.14,3.44-20.45,3.81-24.25.1-1.06.15-2.25.19-3.75.28-10.87.5-19-3-27-1.53-3.5-3.58-6.57-3-7C86.41,189.72,87.84,190.93,89,192Z"/><path class="cls-1" d="M83,388c1,.83,5.93-6.56,16-10,6.33-2.16,11-1.5,19-1a257.42,257.42,0,0,0,33,0c9.28-.71,17.52-3.81,34-10s28.2-12.21,51-24c23.42-12.11,24.17-13.6,24-14s-1.92-.52-24,6c-16.8,5-18.23,5.72-23,7-22.22,6-26.23-1.17-51,3-3.37.57.19.11-36,11-15.72,4.73-22.56,6.67-30,13C86.67,377,81.93,387.11,83,388Z"/><path class="cls-1" d="M35,288c1-.21,5.09,14.11,8,27,2.14,9.49,4.91,21.75,6,37,1.54,21.51-2.33,20-2,49,.22,19.28,2,28.38,1,41-.57,7.11-1.82,12.6-1,22,.26,2.93.58,4.78,0,5-1.77.67-10.48-14.12-15-29-4.84-15.91-4-29-3-43,1.74-24,6.13-23,8-49a236.75,236.75,0,0,0,0-39C36,296.87,34.24,288.19,35,288Z"/><path class="cls-1" d="M63,445c3,4.28,25.19-6.6,28-8,15.18-7.55,17.15-12.22,36-22,11.6-6,16.84-7.36,21-8,9.26-1.44,17.12-.07,23,1,9.85,1.79,9.89,3.42,21,6a119.9,119.9,0,0,0,27,3c14.59.27,20.07-1.77,24-5,.51-.42,4.85-4,4-6-1.13-2.64-10.36-.41-17,0-12.79.8-17.36-5.46-38-14-14.42-6-21.64-8.95-31-10-19.78-2.22-35.7,5.15-44,9-17.89,8.29-27.83,19.34-41,34C69.48,432.28,60.8,441.94,63,445Z"/><path class="cls-1" d="M37,504c1.38,6.46,29.57,5.08,31,5a97,97,0,0,0,38-10c9.18-4.65,9-6.47,26-18,18.64-12.65,29.58-17.75,29-19-.72-1.56-17.28,7.38-44,13-19.59,4.12-22.31,1.75-38,6C58.73,486.51,35.69,497.92,37,504Z"/><path class="cls-1" d="M0,594S35.54,478.19,101,338c7.42-15.89,58.49-104.06,66-119,25.27-50.27,33-60,53-97"/></g></g></svg>